<svg width="26" height="26" viewBox="0 0 26 26" fill="none" xmlns="http://www.w3.org/2000/svg">
<circle cx="13.0471" cy="12.8049" r="12.8049" fill="#D9D9D9"/>
<path d="M14.0176 13.9288H11.0365L11.0265 11.808H13.5674C13.9676 11.808 14.2944 11.7413 14.5478 11.6079C14.8079 11.4679 14.998 11.2645 15.118 10.9977C15.2447 10.7243 15.3081 10.3942 15.3081 10.0073C15.3081 9.5605 15.2514 9.2037 15.138 8.93693C15.0247 8.66349 14.8413 8.46341 14.5878 8.3367C14.3344 8.20999 14.0043 8.14663 13.5975 8.14663H12.0369V20.2812H9.10574V5.7157H13.5975C14.3244 5.7157 14.9746 5.79573 15.5482 5.95579C16.1217 6.11585 16.6086 6.35928 17.0088 6.68607C17.4089 7.01286 17.7124 7.42635 17.9191 7.92654C18.1325 8.42673 18.2392 9.01696 18.2392 9.69722C18.2392 10.2974 18.1192 10.851 17.8791 11.3579C17.639 11.8647 17.2622 12.2782 16.7487 12.5983C16.2418 12.9184 15.5782 13.0985 14.7579 13.1385L14.0176 13.9288ZM13.9176 20.2812H10.2062L11.3766 17.8603H13.9176C14.3044 17.8603 14.6178 17.777 14.8579 17.6102C15.098 17.4435 15.2714 17.2201 15.3781 16.94C15.4848 16.6532 15.5382 16.3264 15.5382 15.9596C15.5382 15.5461 15.4882 15.186 15.3881 14.8792C15.2948 14.5724 15.138 14.339 14.918 14.1789C14.6979 14.0122 14.4011 13.9288 14.0276 13.9288H11.5067L11.5267 11.808H14.5878L15.2781 12.6483C16.0584 12.6217 16.682 12.7717 17.1488 13.0985C17.6157 13.4186 17.9491 13.8388 18.1492 14.359C18.3559 14.8725 18.4593 15.4194 18.4593 15.9996C18.4593 16.9333 18.2826 17.7203 17.9291 18.3605C17.5823 18.9941 17.0721 19.4743 16.3985 19.8011C15.7249 20.1212 14.8979 20.2812 13.9176 20.2812Z" fill="#3F3F3F"/>
</svg>
