<svg width="13" height="13" viewBox="0 0 13 13" fill="none" xmlns="http://www.w3.org/2000/svg">
<path d="M11.3466 1.23075H9.71505V0.440198C9.71505 0.22161 9.54677 0.0449219 9.3386 0.0449219C9.13042 0.0449219 8.96214 0.22161 8.96214 0.440198V1.23075H6.70342V0.440198C6.70342 0.22161 6.53477 0.0449219 6.32697 0.0449219C6.11916 0.0449219 5.95051 0.22161 5.95051 0.440198V1.23075H3.69179V0.440198C3.69179 0.22161 3.52314 0.0449219 3.31534 0.0449219C3.10754 0.0449219 2.93889 0.22161 2.93889 0.440198V1.23075H1.30771C0.753196 1.23075 0.303711 1.70231 0.303711 2.28456V11.6396C0.303711 12.2218 0.753196 12.6938 1.30771 12.6938H11.3466C11.9011 12.6938 12.3502 12.2218 12.3502 11.6396V2.28456C12.3502 1.70231 11.9011 1.23075 11.3466 1.23075ZM11.5973 11.6396C11.5973 11.785 11.4848 11.9032 11.3466 11.9032H1.30771C1.16918 11.9032 1.05662 11.785 1.05662 11.6396V2.28456C1.05662 2.13949 1.16918 2.0213 1.30771 2.0213H2.93889V2.81186C2.93889 3.03044 3.10754 3.20713 3.31534 3.20713C3.52314 3.20713 3.69179 3.03044 3.69179 2.81186V2.0213H5.95051V2.81186C5.95051 3.03044 6.11916 3.20713 6.32697 3.20713C6.53477 3.20713 6.70342 3.03044 6.70342 2.81186V2.0213H8.96214V2.81186C8.96214 3.03044 9.13042 3.20713 9.3386 3.20713C9.54677 3.20713 9.71505 3.03044 9.71505 2.81186V2.0213H11.3466C11.4848 2.0213 11.5973 2.13949 11.5973 2.28456V11.6396Z" fill="#F9806D"/>
<path d="M4.44136 4.78711H2.93555V5.97294H4.44136V4.78711Z" fill="#F9806D"/>
<path d="M4.44136 6.76367H2.93555V7.9495H4.44136V6.76367Z" fill="#F9806D"/>
<path d="M4.44136 8.73828H2.93555V9.92411H4.44136V8.73828Z" fill="#F9806D"/>
<path d="M7.08003 8.73828H5.57422V9.92411H7.08003V8.73828Z" fill="#F9806D"/>
<path d="M7.08003 6.76367H5.57422V7.9495H7.08003V6.76367Z" fill="#F9806D"/>
<path d="M7.08003 4.78711H5.57422V5.97294H7.08003V4.78711Z" fill="#F9806D"/>
<path d="M9.71919 8.73828H8.21338V9.92411H9.71919V8.73828Z" fill="#F9806D"/>
<path d="M9.71919 6.76367H8.21338V7.9495H9.71919V6.76367Z" fill="#F9806D"/>
<path d="M9.71919 4.78711H8.21338V5.97294H9.71919V4.78711Z" fill="#F9806D"/>
</svg>
