<svg width="63" height="63" viewBox="0 0 63 63" fill="none" xmlns="http://www.w3.org/2000/svg">
<path d="M23.7867 32.0463L22.3594 30.6189L31.5264 21.4766L40.6934 30.6189L39.2537 32.0463L32.5354 25.3279V55.0807H30.5051V25.3279L23.7867 32.0463Z" fill="black"/>
<path d="M49.1326 22.5938C49.1326 22.4461 49.1572 22.2984 49.1572 22.1508C49.1572 14.2389 42.6604 7.82812 34.7854 7.82812C29.1129 7.82812 24.2279 11.1627 21.9393 15.9861C20.9426 15.4816 19.8352 15.1986 18.6416 15.1986C14.9994 15.1986 11.9848 18.1025 11.3941 21.5971C7.06289 23.0859 3.9375 27.3434 3.9375 32.216C3.9375 38.3314 8.87168 43.3148 14.9625 43.3148H26.209V41.3461H15.0609C10.0283 41.3461 5.93086 37.224 5.93086 32.1668C5.93086 28.2539 8.41641 24.6363 12.1078 23.3566L13.1414 22.9998L13.326 21.917C13.7689 19.2592 16.0453 17.0813 18.7277 17.0813C19.5768 17.0813 20.4135 17.2781 21.1764 17.6719L22.8375 18.5086L23.6373 16.8229C25.6799 12.5285 30.048 9.75996 34.7607 9.75996C41.5652 9.75996 47.1762 15.0879 47.1762 21.9293C47.1762 23.5658 47.1516 24.4271 47.1516 24.4271L49.0219 24.4395C53.5254 24.501 57.0938 28.5492 57.0938 33.0896C57.0938 37.6178 53.427 41.3215 48.9111 41.3461H48.5174H36.5449V43.3148H48.9727C54.5098 43.3148 59.0625 38.7252 59.0625 33.1266C59.0625 27.5279 54.6943 22.6061 49.1326 22.5938Z" fill="black"/>
</svg>
