<svg width="24" height="28" viewBox="0 0 24 28" fill="none" xmlns="http://www.w3.org/2000/svg">
<path d="M7.83936 8.70703H9.5928V22.7346H7.83936V8.70703Z" fill="#7B7B7B"/>
<path d="M11.3428 8.70703H13.0962V22.7346H11.3428V8.70703Z" fill="#7B7B7B"/>
<path d="M14.8457 8.70703H16.5992V22.7346H14.8457V8.70703Z" fill="#7B7B7B"/>
<path d="M0.820312 3.43945H23.6151V5.1929H0.820312V3.43945Z" fill="#7B7B7B"/>
<path d="M16.541 4.32517H14.9044V2.57172C14.9044 2.04569 14.4953 1.63655 13.9692 1.63655H10.4623C9.93631 1.63655 9.52717 2.04569 9.52717 2.57172V4.32517H7.89062V2.57172C7.89062 1.16896 9.05959 0 10.4623 0H13.9692C15.372 0 16.541 1.16896 16.541 2.57172V4.32517Z" fill="#7B7B7B"/>
<path d="M17.4761 27.9995H6.9554C5.55264 27.9995 4.32523 26.8306 4.20833 25.4278L2.57178 4.38643L4.32522 4.26953L5.96178 25.3109C6.02023 25.8369 6.48781 26.2461 6.9554 26.2461H17.4761C18.0021 26.2461 18.4697 25.7785 18.4697 25.3109L20.1063 4.26953L21.8597 4.38643L20.2231 25.4278C20.1063 26.889 18.8788 27.9995 17.4761 27.9995Z" fill="#7B7B7B"/>
</svg>
