<svg width="15" height="11" viewBox="0 0 15 11" fill="none" xmlns="http://www.w3.org/2000/svg">
<g opacity="0.56">
<path d="M13.7595 5.03151C14.0802 5.45013 14.0802 6.01636 13.7595 6.43498C12.7498 7.75285 10.3276 10.4665 7.50001 10.4665C4.67239 10.4665 2.25015 7.75285 1.24052 6.43498C0.919831 6.01636 0.919824 5.45013 1.24051 5.03151C2.25015 3.71364 4.67239 1 7.50001 1C10.3276 1 12.7498 3.71364 13.7595 5.03151Z" stroke="white" stroke-linecap="round" stroke-linejoin="round"/>
<path d="M7.49777 7.76214C8.6181 7.76214 9.5263 6.85394 9.5263 5.73361C9.5263 4.61328 8.6181 3.70508 7.49777 3.70508C6.37744 3.70508 5.46924 4.61328 5.46924 5.73361C5.46924 6.85394 6.37744 7.76214 7.49777 7.76214Z" stroke="white" stroke-linecap="round" stroke-linejoin="round"/>
</g>
</svg>
