<svg width="27" height="26" viewBox="0 0 27 26" fill="none" xmlns="http://www.w3.org/2000/svg">
<circle cx="13.6174" cy="12.8049" r="12.8049" fill="#D9D9D9"/>
<path d="M15.4283 9.45713L13.5476 20.2812H11.2767L13.1574 9.45713H15.4283ZM13.5376 6.65606C13.5443 6.28925 13.661 5.9758 13.8877 5.7157C14.1211 5.44893 14.4246 5.31221 14.7981 5.30555C15.1715 5.29888 15.475 5.41892 15.7084 5.66568C15.9418 5.91244 16.0552 6.21923 16.0485 6.58603C16.0419 6.95284 15.9218 7.26629 15.6884 7.52639C15.4617 7.77982 15.1582 7.90987 14.7781 7.91654C14.4113 7.92988 14.1111 7.8165 13.8777 7.57641C13.651 7.32965 13.5376 7.02287 13.5376 6.65606Z" fill="#3F3F3F"/>
</svg>
